<svg><g featurekey="PG4fjM-0" transform="matrix(1.098600694149333,0,0,1.098600694149333,1224.1531050712474,-763.3790935582888)" fill="#000"><path xmlns="http://www.w3.org/2000/svg" fill="#000" d="M-1051.591,751.222l2.999,0.344c0.028,0.003,0.056,0.005,0.084,0.005h0.001c0,0,0,0,0,0s0,0,0.001,0  c0.001,0,0.003-0.001,0.005-0.001c0.068-0.001,0.137-0.01,0.206-0.029l5.522-1.623c0,0,0.001-0.001,0.001-0.001l0.538-0.157  c0.001,0,0.002,0,0.003,0s0.001-0.001,0.002-0.001l0.463-0.136h0.001c0,0,0.001,0,0.001,0l0.282-0.084  c0.59-0.177,0.929-0.801,0.755-1.39l-0.454-1.548c-0.175-0.589-0.795-0.924-1.392-0.758l-0.278,0.082c0,0-0.001,0.001-0.001,0.001  l-0.462,0.136c-0.001,0-0.002,0-0.003,0s-0.002,0.001-0.003,0.002l-0.539,0.158l-5.523,1.621c0,0-0.001,0-0.001,0  c-0.035,0.011-0.061,0.035-0.094,0.05c-0.058,0.026-0.118,0.048-0.17,0.09l-1.481,1.214l-0.027,0.022l-0.827,0.678  c-0.233,0.191-0.329,0.503-0.244,0.792C-1052.14,750.978-1051.891,751.188-1051.591,751.222z M-1048.813,749.239l4.658-1.367  l0.24,0.817l-4.657,1.368l-1.087-0.124L-1048.813,749.239z"></path><path xmlns="http://www.w3.org/2000/svg" fill="#000" d="M-1107.842,753.482c0.06,0,0.121-0.007,0.18-0.021l12.018-2.974l0.107,1.35  c0.03,0.384,0.347,0.683,0.733,0.69l22.777,0.44l32.917,2.92c0.022,0.002,0.044,0.003,0.066,0.003c0.274,0,0.528-0.15,0.66-0.395  l5.486-10.176c0.121-0.223,0.12-0.492-0.002-0.716c-0.122-0.223-0.349-0.368-0.602-0.388l-8.428-0.634l-2.292-8.628  c0.005-2.888,0.221-6.345,0.569-6.97c0.666-1.199,8.373-22.891,9.433-25.877c0.872-0.759,1.435-1.862,1.435-3.106  c0-2.28-1.854-4.135-4.134-4.135c-2.28,0-4.135,1.854-4.135,4.135c0,0.231,0.032,0.455,0.068,0.677  c-0.909,1.999-7.261,15.969-8.116,17.803c-0.712,1.526-1.97,2.558-2.314,2.821l-2.052,0.606l-0.449-1.685  c3.558-1.678,6.031-5.289,6.031-9.477c0-5.78-4.703-10.482-10.483-10.482s-10.482,4.702-10.482,10.482  c0,4.993,3.511,9.174,8.192,10.223l-0.285,2.423c-3.563,0.137-9.478,0.683-11.5,2.705c-1.633,1.633-8.764,10.558-9.969,16.404  l-4.229,0.19c0.007-0.026,0.007-0.053,0.011-0.08c0.008-0.046,0.021-0.092,0.019-0.139c-0.001-0.053-0.018-0.106-0.032-0.16  c-0.009-0.036-0.007-0.073-0.021-0.109c-0.002-0.006-0.007-0.009-0.01-0.015c-0.021-0.046-0.054-0.081-0.083-0.121  c-0.029-0.041-0.052-0.085-0.09-0.121c-0.004-0.004-0.006-0.01-0.01-0.014c-0.338-0.302-0.503-0.595-0.505-0.897  c-0.004-0.453,0.367-0.895,0.505-1.022c0.014-0.012,0.019-0.029,0.031-0.042c0.048-0.05,0.09-0.104,0.122-0.162  c0.015-0.027,0.027-0.057,0.039-0.085c0.021-0.055,0.035-0.111,0.042-0.169c0.005-0.031,0.011-0.062,0.011-0.094  c0-0.015,0.006-0.029,0.005-0.044c-0.002-0.052-0.019-0.099-0.031-0.147c-0.006-0.023-0.007-0.048-0.015-0.07  c-0.029-0.082-0.075-0.159-0.134-0.229c-0.004-0.005-0.005-0.012-0.01-0.017c-0.013-0.015-0.032-0.021-0.046-0.034  c-0.049-0.046-0.101-0.087-0.158-0.117c-0.027-0.016-0.056-0.027-0.085-0.039c-0.025-0.01-0.047-0.026-0.073-0.033l-10.14-2.766  c-0.14-0.038-0.288-0.035-0.426,0.01l-15.033,4.813c-0.012,0.004-0.021,0.013-0.033,0.017c-0.03,0.012-0.056,0.027-0.084,0.043  c-0.052,0.027-0.101,0.059-0.145,0.097c-0.023,0.021-0.045,0.042-0.066,0.065c-0.04,0.046-0.074,0.097-0.102,0.151  c-0.012,0.024-0.027,0.047-0.038,0.072c-0.032,0.082-0.053,0.169-0.054,0.261c0,0.002,0.001,0.003,0.001,0.005  c0,0.001-0.001,0.002-0.001,0.003v2.891c0,0.285,0.166,0.537,0.417,0.664l-0.811,0.156c-0.02,0.004-0.032,0.021-0.051,0.025  c-0.099,0.027-0.188,0.071-0.267,0.133c-0.017,0.014-0.037,0.021-0.053,0.035c-0.086,0.082-0.149,0.186-0.189,0.301  c-0.003,0.011-0.014,0.018-0.018,0.028c-0.021,0.069-0.03,0.14-0.031,0.21c0,0.001,0,0.003,0,0.004v1.998  c0,0.197,0.077,0.386,0.215,0.526l5.693,5.785C-1108.234,753.403-1108.041,753.482-1107.842,753.482z M-1107.704,749.551  l-0.097-0.094l1.063-0.134L-1107.704,749.551z M-1107.619,747.923v-0.313l2.956-0.353l0.572,0.223L-1107.619,747.923z   M-1106.914,751.729v-0.823l14.18-3.34l3.868-0.485v0.183L-1106.914,751.729z M-1034.766,745.626l-4.704,8.724l-30.749-2.726  l2.974-2.768c0.187,0.002,0.367,0.003,0.527,0.003c0.291,0,0.525-0.003,0.718-0.006c0.623,1.079,1.776,1.814,3.109,1.814  c1.987,0,3.604-1.616,3.604-3.604c0-1.672-1.149-3.068-2.696-3.474l0.142-0.003L-1034.766,745.626z M-1064.994,747.064  c0-1.16,0.944-2.104,2.104-2.104c1.16,0,2.104,0.943,2.104,2.104s-0.944,2.104-2.104,2.104  C-1064.05,749.168-1064.994,748.225-1064.994,747.064z M-1036.919,696.367c1.453,0,2.634,1.182,2.634,2.635  s-1.182,2.635-2.634,2.635c-1.227,0-2.252-0.846-2.544-1.983c-0.009-0.067-0.019-0.134-0.045-0.196  c-0.026-0.148-0.046-0.299-0.046-0.455C-1039.554,697.549-1038.372,696.367-1036.919,696.367z M-1067.352,709.748  c0-4.953,4.029-8.982,8.982-8.982s8.983,4.029,8.983,8.982s-4.03,8.982-8.983,8.982S-1067.352,714.701-1067.352,709.748z   M-1054.908,721.335l-3.441,1.018c-0.218-0.003-0.598-0.005-1.082,0.002l0.255-2.165c0.267,0.021,0.534,0.041,0.806,0.041  c1.06,0,2.082-0.161,3.046-0.455L-1054.908,721.335z M-1071.385,726.159c1.631-1.631,7.391-2.16,11.061-2.279  c0.016,0.001,0.032,0.003,0.048,0.003c0.009,0,0.016-0.004,0.025-0.005c0.784-0.024,1.475-0.03,1.999-0.024  c0.08-0.003,0.15-0.01,0.222-0.031l7.167-2.119c0.076-0.022,0.148-0.057,0.214-0.103c0.077-0.053,1.904-1.335,2.907-3.485  c0.753-1.615,5.746-12.59,7.567-16.595c0.757,0.976,1.928,1.616,3.256,1.616c0.264,0,0.52-0.03,0.77-0.078  c-3.489,9.818-8.357,23.359-8.814,24.198c-0.721,1.298-0.757,6.722-0.757,7.796c0,0.065,0.008,0.13,0.025,0.192l2.183,8.22  l-18.288-1.375l-6.865,0.152c-1.018-0.406-1.742-0.834-1.884-1.214c-0.492-1.314,2.328-5.643,4.389-8.154  c0.263-0.32,0.216-0.792-0.104-1.056c-0.32-0.263-0.792-0.215-1.056,0.104c-0.945,1.15-5.611,7.024-4.635,9.631  c0.61,1.632,4.007,2.656,6.34,3.178c-0.541,0.631-0.88,1.439-0.88,2.333c0,0.1,0.021,0.194,0.03,0.292  c-2.638,0.01-10.491-0.179-13.916-2.565c-0.421-0.293-0.653-0.754-0.711-1.406C-1081.486,738.927-1073.954,728.728-1071.385,726.159  z M-1087.041,747.586c-0.048-0.194-0.169-0.349-0.325-0.448v-0.245l0.455-0.057c0.411-0.052,0.703-0.427,0.651-0.838  c-0.029-0.231-0.167-0.416-0.35-0.531v-0.437c0.146-0.092,0.264-0.227,0.319-0.397c0.091-0.277,0.012-0.583-0.202-0.782l-0.68-0.632  l4.594-0.207c-0.001,0.168-0.02,0.346-0.006,0.505c0.098,1.107,0.552,1.95,1.348,2.505c2.867,1.998,8.203,2.602,11.858,2.773  l-2.87,2.67l-21.847-0.424l-0.073-0.919l6.58-1.628C-1087.187,748.395-1086.941,747.987-1087.041,747.586z M-1088.11,745.475  l-9.787,1.229l0.84-0.352l8.946-1.064V745.475z M-1091.989,744.238l2.559-1.068l0.729,0.677L-1091.989,744.238z M-1088.563,741.184  l-13.068,5.451c-0.576-0.861-0.23-1.624-0.018-1.953l12.802-4.859c-0.006,0.069-0.019,0.137-0.019,0.209  C-1088.866,740.342-1088.799,740.747-1088.563,741.184z M-1097.483,736.472l7.701,2.101l-12.357,4.691l-8.007-2.738  L-1097.483,736.472z M-1111.783,741.552l8.565,2.929c-0.184,0.472-0.29,1.041-0.199,1.652l-6.148-2.391l-0.004-0.002l-1.07-0.416  l-0.019-0.008l-1.124-0.437V741.552z M-1111.176,745.258l0.753,1.66l-1.555-1.505L-1111.176,745.258z M-1108.414,751.081  l-2.711-2.755l2.673,2.588c0.011,0.011,0.026,0.015,0.038,0.024V751.081z M-1107.638,746.102l-0.585,0.069l-0.164-0.361  L-1107.638,746.102z"></path></g></svg>